<svg width="124" height="100" viewBox="0 0 124 100" fill="none" xmlns="http://www.w3.org/2000/svg">
<g style="mix-blend-mode:multiply">
<path d="M0.65625 28.0796V0.244304H3.48696V28.0796H0.65625ZM4.90231 28.0796V0.244304H9.14837V28.0796H4.90231ZM10.5637 28.0796V0.244304H14.8098V28.0796H10.5637ZM8.44069 43.3182C7.30841 43.3182 6.44347 42.9723 5.84588 42.2803C5.24829 41.5884 4.94949 40.6133 4.94949 39.3552V32.1841H6.31766V32.3257C6.22331 32.3886 6.17613 32.4672 6.17613 32.5615C6.14468 32.6244 6.12895 32.766 6.12895 32.9861V39.3552C6.12895 40.2988 6.31766 41.0222 6.69509 41.5254C7.04107 42.0287 7.63866 42.2803 8.48787 42.2803C9.30563 42.2803 9.90323 42.0287 10.2807 41.5254C10.6581 41.0222 10.8468 40.2831 10.8468 39.3081V32.1841H12.0263V39.3081C12.0263 40.6605 11.7117 41.667 11.0827 42.3275C10.4536 42.988 9.57298 43.3182 8.44069 43.3182ZM16.2288 28.0796V0.244304H17.6442V28.0796H16.2288ZM19.0595 28.0796V0.244304H23.3056V28.0796H19.0595ZM27.5517 28.0796V0.244304H30.3824V28.0796H27.5517ZM20.5221 32.1841H21.7015L26.2778 40.2988V32.1841H27.646V32.3257C27.5517 32.3886 27.5045 32.4672 27.5045 32.5615C27.473 32.6244 27.4573 32.766 27.4573 32.9861V43.1295H26.5137L21.6543 34.543V43.1295H20.5221V32.1841ZM31.8014 28.0796V0.244304H33.2168V28.0796H31.8014ZM34.6321 28.0796V0.244304H38.8782V28.0796H34.6321ZM40.2935 28.0796V0.244304H43.1242V28.0796H40.2935ZM35.9059 32.1841H36.8967L39.5858 37.5625L42.3222 32.1841H43.2658V43.1295H42.0863V34.8733L39.7274 39.3081H39.2556L37.0382 34.9205V43.1295H35.9059V32.1841ZM47.374 28.0796V0.244304H48.7893V28.0796H47.374ZM50.2047 28.0796V0.244304H51.62V28.0796H50.2047ZM55.8661 28.0796V0.244304H58.6968V28.0796H55.8661ZM56.904 39.9214H53.3656L52.2805 43.1295H51.0539L55.0641 31.9954H55.2056L59.2629 43.1295H57.9891L56.904 39.9214ZM56.5738 38.9778L55.1584 34.8261L53.6959 38.9778H56.5738ZM62.9465 28.0796V0.244304H64.3619V28.0796H62.9465ZM65.7773 28.0796V0.244304H70.0233V28.0796H65.7773ZM74.2694 28.0796V0.244304H77.1001V28.0796H74.2694ZM67.2398 32.1841H68.4192L72.9956 40.2988V32.1841H74.3637V32.3257C74.2694 32.3886 74.2222 32.4672 74.2222 32.5615C74.1907 32.6244 74.175 32.766 74.175 32.9861V43.1295H73.2314L68.3721 34.543V43.1295H67.2398V32.1841ZM78.5191 28.0796V0.244304H79.9345V28.0796H78.5191ZM81.3498 28.0796V0.244304H85.5959V28.0796H81.3498ZM89.8419 28.0796V0.244304H92.6727V28.0796H89.8419ZM82.8124 32.1841H83.9918L88.5681 40.2988V32.1841H89.9363V32.3257C89.8419 32.3886 89.7948 32.4672 89.7948 32.5615C89.7633 32.6244 89.7476 32.766 89.7476 32.9861V43.1295H88.804L83.9446 34.543V43.1295H82.8124V32.1841ZM94.0917 28.0796V0.244304H95.507V28.0796H94.0917ZM99.7531 28.0796V0.244304H102.584V28.0796H99.7531ZM103.999 28.0796V0.244304H105.415V28.0796H103.999ZM98.5265 32.1841H105.226V33.2692H99.6587V36.8548H104.282V37.9871H99.6587V42.0444H105.179V43.1295H98.5265V32.1841ZM109.664 28.0796V0.244304H111.08V28.0796H109.664ZM112.495 28.0796V0.244304H115.326V28.0796H112.495ZM119.572 28.0796V0.244304H120.987V28.0796H119.572ZM114.005 32.1841H116.552C117.464 32.1841 118.172 32.3099 118.675 32.5615C119.21 32.8132 119.666 33.1906 120.044 33.6938C120.767 34.6374 121.129 35.9741 121.129 37.704C121.066 39.4968 120.657 40.8492 119.902 41.7613C119.147 42.7049 117.968 43.161 116.364 43.1295H114.005V32.1841ZM116.269 42.1859C118.691 42.1859 119.902 40.7234 119.902 37.7984C119.902 36.3201 119.635 35.1878 119.1 34.4015C118.534 33.6152 117.653 33.222 116.458 33.222H115.184V42.1859H116.269ZM0.65625 84.0796V56.2443H3.48696V84.0796H0.65625ZM4.90231 84.0796V56.2443H9.14837V84.0796H4.90231ZM10.5637 84.0796V56.2443H14.8098V84.0796H10.5637ZM8.44069 99.3182C7.30841 99.3182 6.44347 98.9723 5.84588 98.2803C5.24829 97.5884 4.94949 96.6133 4.94949 95.3552V88.1841H6.31766V88.3257C6.22331 88.3886 6.17613 88.4672 6.17613 88.5615C6.14468 88.6244 6.12895 88.766 6.12895 88.9861V95.3552C6.12895 96.2988 6.31766 97.0222 6.69509 97.5254C7.04107 98.0287 7.63866 98.2803 8.48787 98.2803C9.30563 98.2803 9.90323 98.0287 10.2807 97.5254C10.6581 97.0222 10.8468 96.2831 10.8468 95.3081V88.1841H12.0263V95.3081C12.0263 96.6605 11.7117 97.667 11.0827 98.3275C10.4536 98.988 9.57298 99.3182 8.44069 99.3182ZM16.2288 84.0796V56.2443H17.6442V84.0796H16.2288ZM19.0595 84.0796V56.2443H23.3056V84.0796H19.0595ZM27.5517 84.0796V56.2443H30.3824V84.0796H27.5517ZM20.5221 88.1841H21.7015L26.2778 96.2988V88.1841H27.646V88.3257C27.5517 88.3886 27.5045 88.4672 27.5045 88.5615C27.473 88.6244 27.4573 88.766 27.4573 88.9861V99.1295H26.5137L21.6543 90.543V99.1295H20.5221V88.1841ZM31.8014 84.0796V56.2443H34.6321V84.0796H31.8014ZM38.8782 84.0796V56.2443H40.2935V84.0796H38.8782ZM44.5396 84.0796V56.2443H45.9549V84.0796H44.5396ZM36.6136 98.0916H38.7838V89.222H36.7551V88.1841H42.1807V89.222H40.0104V98.0916H42.275V99.1295H36.6136V98.0916ZM47.374 84.0796V56.2443H50.2047V84.0796H47.374ZM51.62 84.0796V56.2443H55.8661V84.0796H51.62ZM60.1122 84.0796V56.2443H61.5275V84.0796H60.1122ZM54.4036 89.2692H51.337V88.1841H58.8855V89.2692H55.6774V99.1295H54.4036V89.2692ZM62.9465 84.0796V56.2443H64.3619V84.0796H62.9465ZM68.608 84.0796V56.2443H71.4387V84.0796H68.608ZM72.854 84.0796V56.2443H74.2694V84.0796H72.854ZM67.3813 88.1841H74.0807V89.2692H68.5136V92.8548H73.1371V93.9871H68.5136V98.0444H74.0335V99.1295H67.3813V88.1841ZM78.5191 84.0796V56.2443H79.9345V84.0796H78.5191ZM81.3498 84.0796V56.2443H84.1805V84.0796H81.3498ZM88.4266 84.0796V56.2443H89.8419V84.0796H88.4266ZM82.8595 88.1841H85.4072C86.3193 88.1841 87.027 88.3099 87.5302 88.5615C88.0649 88.8132 88.521 89.1906 88.8984 89.6938C89.6218 90.6374 89.9835 91.9741 89.9835 93.704C89.9206 95.4968 89.5117 96.8492 88.7568 97.7613C88.002 98.7049 86.8225 99.161 85.2185 99.1295H82.8595V88.1841ZM85.1241 98.1859C87.5459 98.1859 88.7568 96.7234 88.7568 93.7984C88.7568 92.3201 88.4895 91.1878 87.9548 90.4015C87.3887 89.6152 86.508 89.222 85.3128 89.222H84.039V98.1859H85.1241ZM94.0917 84.0796V56.2443H95.507V84.0796H94.0917ZM98.3378 84.0796V56.2443H102.584V84.0796H98.3378ZM103.999 84.0796V56.2443H106.83V84.0796H103.999ZM101.876 88.1369C102.946 88.1369 103.779 88.6244 104.377 89.5995C104.974 90.6059 105.273 91.9741 105.273 93.704C105.273 95.4968 104.974 96.8807 104.377 97.8557C103.81 98.8307 102.977 99.3182 101.876 99.3182C100.775 99.3182 99.9418 98.8307 99.3757 97.8557C98.7781 96.8807 98.4793 95.4968 98.4793 93.704C98.4793 91.9741 98.7781 90.6059 99.3757 89.5995C99.9733 88.6244 100.807 88.1369 101.876 88.1369ZM101.876 89.222C101.216 89.222 100.697 89.6152 100.319 90.4015C99.9418 91.2193 99.7531 92.3201 99.7531 93.704C99.7531 94.4903 99.8003 95.1665 99.8946 95.7327L103.622 90.9205C103.464 90.3858 103.229 89.9612 102.914 89.6466C102.631 89.3636 102.285 89.222 101.876 89.222ZM101.876 98.2331C102.537 98.2331 103.056 97.8557 103.433 97.1008C103.81 96.3145 103.999 95.1823 103.999 93.704C103.999 93.0435 103.952 92.4616 103.858 91.9584L100.178 96.7234C100.524 97.7299 101.09 98.2331 101.876 98.2331ZM109.664 84.0796V56.2443H111.08V84.0796H109.664ZM113.91 84.0796V56.2443H118.156V84.0796H113.91ZM120.987 84.0796V56.2443H123.818V84.0796H120.987ZM117.118 89.6938L114.901 90.3543L114.618 89.6938L117.449 88.1841H118.345V99.1295H117.118V89.6938Z" fill="#174F94"/>
</g>
</svg>
