<svg width="225" height="225" viewBox="0 0 225 225" fill="none" xmlns="http://www.w3.org/2000/svg">
<path d="M120.499 177.424L147.869 153.683V122.956L130.023 125.463L120.499 177.424Z" fill="white"/>
<path d="M76.2754 122.956V153.683L103.634 177.416L94.1177 125.459L76.2754 122.956Z" fill="white"/>
<path d="M66.1536 140.579L72.9141 146.443V122.48L66.1536 121.532V140.579Z" fill="white"/>
<path d="M151.234 146.12L157.995 140.255V121.532L151.234 122.481V146.12Z" fill="white"/>
<path d="M132.076 114.263L130.548 122.612L159.239 118.58L167.279 109.316L132.076 114.263Z" fill="white"/>
<path d="M92.0654 114.263L56.8701 109.316L64.9067 118.58L93.5974 122.612L92.0654 114.263Z" fill="white"/>
<path d="M126.597 103.681L130.489 111.195L170.537 105.567L178.577 96.3071L126.661 103.598L126.597 103.681Z" fill="white"/>
<path d="M93.6554 111.194L97.5438 103.681L97.4836 103.598L45.5715 96.3066L53.6081 105.567L93.6554 111.194Z" fill="white"/>
<path d="M134.862 88.474L134.869 88.4665L147.871 86.6408V55.3641L121.341 44.8281L121.484 90.2771L134.862 88.474Z" fill="white"/>
<path d="M102.335 44.8218L76.2751 55.3201V86.642L89.2767 88.4677L89.2842 88.4752L102.478 90.2519L102.335 44.8218Z" fill="white"/>
<path d="M157.995 65.6956L151.234 63.0117V86.1691L157.995 85.2205V65.6956Z" fill="white"/>
<path d="M66.1536 85.2198L72.9141 86.1684V63.3047L66.1536 66.0262V85.2198Z" fill="white"/>
<path d="M110.28 196.791L112.064 206.533L113.848 196.791C159.738 195.846 196.649 158.347 196.649 112.228C196.649 66.1092 158.782 27.6504 112.072 27.6504C65.3617 27.6504 27.4939 65.5182 27.4939 112.228C27.4939 158.938 64.3981 195.835 110.28 196.787V196.791ZM87.7851 91.032L35.7036 83.7144C47.2635 52.7689 77.0947 30.7333 112.075 30.7333C147.056 30.7333 176.887 52.7689 188.447 83.7144L136.362 91.032L129.319 100.153L181.611 92.8049L188.76 84.5688C191.876 93.2077 193.574 102.52 193.574 112.232C193.574 156.458 158.345 192.458 114.421 193.697L128.894 114.735L122.999 103.348L131.792 91.9617L117.534 93.8815L112.068 80.6051L106.617 93.8815L92.3586 91.9617L101.152 103.348L101.031 103.582L100.926 103.781L95.257 114.735L109.719 193.697C65.7984 192.447 30.5768 156.454 30.5768 112.232C30.5768 102.52 32.2744 93.2039 35.3912 84.5688L42.5432 92.8049L94.8316 100.153L87.7888 91.032H87.7851Z" fill="white"/>
<path d="M21.8948 129.451C21.5786 128.864 21.2097 128.375 20.7843 128.006C20.3552 127.633 19.8772 127.377 19.3539 127.257C18.8307 127.133 18.3 127.144 17.7579 127.28L10.9033 129L11.3851 130.916L18.3037 129.18C18.5108 129.128 18.7216 129.132 18.9474 129.203C19.162 129.267 19.3878 129.395 19.6212 129.617C19.8546 129.835 20.0842 130.14 20.3025 130.547C20.5133 130.938 20.6978 131.428 20.8446 132.015C20.9914 132.606 21.0629 133.125 21.0591 133.573C21.0591 134.032 20.9989 134.409 20.8973 134.714C20.7956 135.019 20.6564 135.245 20.4983 135.406C20.3289 135.568 20.1444 135.67 19.9374 135.723L13.0188 137.458L13.5006 139.374L20.3552 137.654C20.8935 137.518 21.3678 137.281 21.7706 136.931V136.927C22.1696 136.57 22.4669 136.118 22.6702 135.587V135.583C22.8697 135.053 22.9638 134.447 22.9638 133.78C22.9638 133.107 22.8622 132.361 22.6589 131.556C22.4556 130.75 22.1997 130.046 21.8797 129.451H21.8948Z" fill="white"/>
<path d="M201.491 130.63C201.408 131.169 201.359 131.688 201.348 132.189C201.344 132.704 201.386 133.194 201.476 133.653C201.57 134.127 201.721 134.571 201.939 134.982C202.161 135.407 202.451 135.78 202.808 136.103C203.17 136.431 203.599 136.702 204.092 136.916C204.593 137.142 205.165 137.3 205.805 137.398C206.723 137.541 207.555 137.534 208.285 137.338L208.357 137.319C209.08 137.12 209.701 136.77 210.209 136.269C210.713 135.783 211.101 135.185 211.379 134.481C211.651 133.8 211.846 133.058 211.974 132.253L212.817 126.877L202.338 125.232L201.491 130.623V130.63ZM203.381 130.913L203.915 127.491L210.63 128.545L210.096 131.967C210.028 132.392 209.942 132.787 209.84 133.149C209.738 133.502 209.61 133.815 209.456 134.093V134.101C209.305 134.376 209.132 134.609 208.937 134.805C208.752 134.993 208.53 135.144 208.27 135.256C208.018 135.369 207.717 135.448 207.359 135.482C207.009 135.516 206.599 135.497 206.125 135.426C205.409 135.313 204.875 135.121 204.491 134.876C204.096 134.62 203.813 134.315 203.625 133.958C203.433 133.596 203.317 133.167 203.286 132.663C203.256 132.136 203.29 131.553 203.392 130.916L203.381 130.913Z" fill="white"/>
<path d="M20.6244 112.24L13.0621 112.198L20.6621 104.779L20.6696 103.047L10.0621 102.995L10.0545 104.96L17.6394 104.997L10.0131 112.416L10.0056 114.163L20.6131 114.216L20.6244 112.24Z" fill="white"/>
<path d="M203.505 111.919L205.417 111.738L204.743 104.692L207.424 104.436L208.056 111.027L209.961 110.842L209.332 104.255L211.478 104.052L212.14 110.989L214.052 110.808L213.194 101.823L202.635 102.832L203.505 111.919Z" fill="white"/>
<path d="M24.6018 85.9366L24.9519 84.6078L19.5277 78.683L26.0548 80.3919L26.5517 78.4948L16.2905 75.8071L15.8388 77.5311L22.3847 84.6229L13.1888 87.6568L12.7371 89.3846L22.9983 92.0685L23.4989 90.1563L16.9417 88.4398L24.6018 85.9366Z" fill="white"/>
<path d="M199.047 85.4104L207.238 82.4555L208.702 86.5209L210.49 85.8734L206.891 75.8945L205.103 76.542L206.568 80.6035L198.38 83.5584L199.047 85.4104Z" fill="white"/>
<path d="M31.6399 69.4035L30.0853 67.0471L32.8859 61.9993L35.7053 62.0708L36.7743 60.1436L24.8079 59.8462L23.9873 61.3218L30.5671 71.3232L31.6362 69.396L31.6399 69.4035ZM26.6749 61.845L30.7365 61.9504L28.9071 65.2403L26.6712 61.845H26.6749Z" fill="white"/>
<path d="M196.163 55.5403L187.388 61.4995L188.498 63.1344L197.273 57.1751L196.163 55.5403Z" fill="white"/>
<path d="M45.7087 50.035L40.2168 44.8366L50.8356 44.6146L52.025 43.3573L44.3197 36.0698L42.9721 37.4927L48.4792 42.7061L37.8453 42.9131L36.6445 44.1779L44.3498 51.4692L45.7087 50.035Z" fill="white"/>
<path d="M177.419 38.823L178.014 49.4305L179.309 50.5748L186.329 42.6211L184.854 41.3186L179.836 47.0101L179.26 36.3838L177.954 35.2319L170.938 43.1857L172.417 44.4956L177.419 38.823Z" fill="white"/>
<path d="M63.3864 35.5799L59.3587 29.1808L69.699 31.6012L71.1632 30.6827L65.5094 21.7051L63.8494 22.7515L67.8922 29.1695L57.5368 26.7303L56.0613 27.6563L61.7151 36.6339L63.3864 35.5799Z" fill="white"/>
<path d="M153.477 30.6908C153.748 31.1914 154.143 31.6619 154.644 32.1023C155.152 32.5465 155.78 32.9568 156.518 33.3332C157.256 33.7097 157.956 33.9807 158.615 34.1275C159.266 34.2743 159.876 34.3195 160.437 34.2442C161.001 34.1651 161.506 33.9732 161.942 33.6607C162.375 33.3483 162.722 32.938 162.974 32.4449L166.185 26.1511L164.423 25.2515L161.178 31.6055C161.08 31.7937 160.941 31.9518 160.738 32.076C160.55 32.1965 160.305 32.2793 159.981 32.3094C159.661 32.3395 159.281 32.3094 158.833 32.2115C158.397 32.1136 157.911 31.9292 157.373 31.6544C156.827 31.3759 156.394 31.0898 156.059 30.7924C155.713 30.4875 155.468 30.1977 155.306 29.9191C155.144 29.6406 155.065 29.3884 155.046 29.1625C155.035 28.9291 155.08 28.7221 155.178 28.5339L158.423 22.1799L156.661 21.2803L153.45 27.574C153.198 28.0671 153.067 28.5828 153.063 29.1173V29.1249C153.067 29.6594 153.213 30.1826 153.477 30.6832V30.6908Z" fill="white"/>
<path d="M91.3772 23.6172L90.79 21.7878L84.0558 23.956L83.2315 21.3926L89.5327 19.3637L88.9455 17.5418L82.6443 19.567L81.9855 17.5155L88.6218 15.3812L88.0308 13.5518L79.4409 16.3147L82.6894 26.414L91.3772 23.6172Z" fill="white"/>
<path d="M110.085 21.5741C110.627 21.5402 111.146 21.4763 111.636 21.3784H111.639C112.14 21.273 112.607 21.1262 113.04 20.938C113.484 20.746 113.883 20.5013 114.24 20.2002C114.606 19.8953 114.91 19.5302 115.151 19.1123C115.396 18.6907 115.565 18.2127 115.671 17.6857C115.784 17.1474 115.814 16.5527 115.776 15.909C115.72 14.9792 115.532 14.1699 115.185 13.4999L115.151 13.4359C114.801 12.7734 114.327 12.2389 113.729 11.8512C113.145 11.4635 112.479 11.215 111.733 11.0908C111.011 10.9704 110.243 10.9403 109.43 10.9892L103.998 11.3167L104.638 21.9054L110.085 21.5779V21.5741ZM109.546 12.8864C109.976 12.86 110.378 12.86 110.759 12.8864C111.124 12.9089 111.459 12.9692 111.764 13.0595H111.771C112.068 13.1461 112.336 13.2665 112.569 13.4171C112.791 13.5601 112.987 13.7446 113.153 13.9742C113.318 14.2001 113.457 14.4748 113.567 14.8174C113.676 15.1524 113.747 15.5589 113.774 16.037C113.819 16.7597 113.744 17.3243 113.585 17.7535C113.42 18.1939 113.183 18.5364 112.874 18.7961C112.562 19.0596 112.17 19.2667 111.681 19.4059C111.173 19.5452 110.597 19.6393 109.953 19.677L106.494 19.884L106.083 13.0971L109.543 12.8901L109.546 12.8864Z" fill="white"/>
<path d="M112.074 0.252535C50.2285 0.251135 0.0904904 50.3891 0.0918904 112.235C0.0932903 174.081 50.2335 224.221 112.079 224.222C173.925 224.224 224.063 174.086 224.062 112.24C224.06 50.3942 173.92 0.253935 112.074 0.252535ZM112.079 221.143C51.9311 221.142 3.17237 172.383 3.171 112.235C3.16964 52.0869 51.9262 3.33029 112.074 3.33165C172.222 3.33301 220.981 52.0918 220.983 112.24C220.984 172.388 172.227 221.145 112.079 221.143Z" fill="white"/>
<path d="M95.4818 202.565L93.3823 213.676L95.4018 214.057L97.5013 202.946L95.4818 202.565Z" fill="white"/>
<path d="M113.332 211.955L105.453 203.613L103.632 203.576L103.402 214.883L105.457 214.925L105.623 206.772L113.501 215.087L115.308 215.124L115.538 203.817L113.498 203.775L113.332 211.955Z" fill="white"/>
<path d="M132.138 210.574C131.916 210.762 131.663 210.943 131.389 211.12C131.114 211.293 130.805 211.458 130.47 211.609C130.131 211.76 129.762 211.891 129.371 212C128.979 212.11 128.554 212.192 128.106 212.245C127.191 212.351 126.382 212.347 125.705 212.23C125.05 212.117 124.493 211.914 124.052 211.628C123.619 211.346 123.288 210.992 123.047 210.551C122.799 210.1 122.637 209.565 122.569 208.967C122.501 208.364 122.535 207.807 122.674 207.307C122.81 206.821 123.051 206.403 123.408 206.027C123.774 205.647 124.27 205.319 124.884 205.059C125.52 204.788 126.307 204.596 127.218 204.495C127.666 204.442 128.095 204.427 128.494 204.446C128.893 204.465 129.277 204.51 129.634 204.577C129.988 204.645 130.327 204.736 130.636 204.849C130.948 204.961 131.253 205.086 131.535 205.221L132.458 205.665L132.172 203.17L131.81 203.064C131.43 202.955 131.05 202.857 130.681 202.774C130.301 202.688 129.905 202.624 129.51 202.579C129.104 202.53 128.678 202.507 128.245 202.503C127.805 202.503 127.327 202.53 126.823 202.59C126.19 202.665 125.58 202.786 125.012 202.955C124.436 203.128 123.898 203.35 123.412 203.621C122.919 203.892 122.475 204.22 122.087 204.589C121.696 204.961 121.364 205.391 121.101 205.857C120.841 206.328 120.653 206.851 120.551 207.412C120.45 207.969 120.431 208.571 120.506 209.204C120.578 209.836 120.732 210.42 120.958 210.935C121.188 211.458 121.485 211.925 121.846 212.324C122.204 212.719 122.625 213.062 123.092 213.337C123.551 213.608 124.06 213.822 124.605 213.977C125.144 214.127 125.72 214.225 126.318 214.259C126.913 214.297 127.53 214.278 128.159 214.206C128.245 214.195 128.332 214.184 128.415 214.172C128.825 214.116 129.209 214.048 129.563 213.965C129.992 213.864 130.399 213.743 130.779 213.604C131.159 213.465 131.528 213.31 131.878 213.141C132.213 212.979 132.559 212.795 132.909 212.603L133.237 212.418L132.947 209.904L132.141 210.578L132.138 210.574Z" fill="white"/>
<path d="M139.255 208.396L136.913 209.003L137.6 211.652L139.942 211.045L139.255 208.396Z" fill="white"/>
<path d="M82.352 202.813C57.2185 194.592 36.4363 176.079 25.3282 152.022C25.1099 151.552 24.5528 151.345 24.0785 151.563C23.6079 151.781 23.4009 152.339 23.6192 152.813C34.9457 177.344 56.1381 196.218 81.7648 204.601C81.8627 204.631 81.9605 204.646 82.0584 204.646C82.4537 204.646 82.8226 204.394 82.9543 203.998C83.1162 203.505 82.8451 202.975 82.352 202.813Z" fill="white"/>
<path d="M200.203 152.23C199.732 152.011 199.171 152.215 198.953 152.685C188.473 175.233 169.137 193.169 145.893 201.898C145.407 202.083 145.159 202.625 145.343 203.11C145.486 203.487 145.844 203.72 146.224 203.72C146.333 203.72 146.446 203.701 146.555 203.66C158.446 199.192 169.216 192.526 178.57 183.838C187.89 175.18 195.32 164.968 200.662 153.479C200.88 153.009 200.677 152.448 200.206 152.23H200.203Z" fill="white"/>
</svg>
