<svg width="1220" height="354" viewBox="0 0 1220 354" fill="none" xmlns="http://www.w3.org/2000/svg">
<g style="mix-blend-mode:multiply">
<path d="M139.627 41.6734V113.044C139.627 124.053 135.737 133.447 127.957 141.227C120.23 148.954 110.888 152.818 99.9326 152.818H76.1159V121.062H91.9937C94.1636 121.062 96.016 120.295 97.5509 118.76C99.1387 117.172 99.9326 115.294 99.9326 113.124V41.6734H139.627ZM72.1464 121.062V152.818H48.3297C37.374 152.818 28.0061 148.954 20.226 141.227C12.4988 133.447 8.63519 124.053 8.63519 113.044V41.6734H48.3297V113.124C48.3297 115.294 49.0971 117.172 50.632 118.76C52.2198 120.295 54.0986 121.062 56.2686 121.062H72.1464ZM268.085 152.818H228.39L160.91 41.6734H200.604L268.085 152.818ZM188.696 93.9908V152.818H149.001V41.6734H156.94L188.696 93.9908ZM240.299 100.501V41.6734H279.993V152.818H272.054L240.299 100.501ZM301.276 41.6734H340.97L384.634 152.818H344.94L301.276 41.6734ZM329.062 122.491V152.818H289.367V41.6734H297.306L329.062 122.491ZM444.176 41.6734H452.115V152.818H412.42V122.491L444.176 41.6734ZM396.543 152.818H388.604L372.726 112.409L400.512 41.6734H440.207L396.543 152.818ZM457.52 152.818L501.184 41.6734H540.878L497.214 152.818H457.52ZM538.02 105.185L528.97 82.0824L544.848 41.6734H552.787L596.451 152.818H556.756L550.484 136.94H507.456L519.92 105.185H538.02ZM720.939 152.818H681.244L613.764 41.6734H653.458L720.939 152.818ZM641.55 93.9908V152.818H601.855V41.6734H609.794L641.55 93.9908ZM693.153 100.501V41.6734H732.847V152.818H724.908L693.153 100.501ZM861.305 152.818H821.611L754.13 41.6734H793.824L861.305 152.818ZM781.916 93.9908V152.818H742.222V41.6734H750.161L781.916 93.9908ZM833.519 100.501V41.6734H873.214V152.818H865.275L833.519 100.501ZM922.282 41.6734V152.818H882.588V41.6734H922.282ZM926.252 41.6734H1001.67V73.429H926.252V41.6734ZM926.252 81.3679H1001.67V113.124H926.252V81.3679ZM926.252 121.062H1001.67V152.818H926.252V121.062ZM1050.74 41.6734V152.818H1011.05V41.6734H1050.74ZM1090.43 73.429H1054.71V41.6734H1098.37C1109.33 41.6734 1118.67 45.5635 1126.4 53.3436C1134.18 61.0708 1138.07 70.4122 1138.07 81.3679V113.044C1138.07 124.053 1134.18 133.447 1126.4 141.227C1118.67 148.954 1109.33 152.818 1098.37 152.818H1054.71V121.062H1090.43C1092.6 121.062 1094.46 120.295 1095.99 118.76C1097.58 117.172 1098.37 115.294 1098.37 113.124V81.3679C1098.37 79.198 1097.58 77.3456 1095.99 75.8107C1094.46 74.2229 1092.6 73.429 1090.43 73.429ZM139.627 217.673V289.044C139.627 300.053 135.737 309.447 127.957 317.227C120.23 324.954 110.888 328.818 99.9326 328.818H76.1159V297.062H91.9937C94.1636 297.062 96.016 296.295 97.5509 294.76C99.1387 293.172 99.9326 291.294 99.9326 289.124V217.673H139.627ZM72.1464 297.062V328.818H48.3297C37.374 328.818 28.0061 324.954 20.226 317.227C12.4988 309.447 8.63519 300.053 8.63519 289.044V217.673H48.3297V289.124C48.3297 291.294 49.0971 293.172 50.632 294.76C52.2198 296.295 54.0986 297.062 56.2686 297.062H72.1464ZM268.085 328.818H228.39L160.91 217.673H200.604L268.085 328.818ZM188.696 269.991V328.818H149.001V217.673H156.94L188.696 269.991ZM240.299 276.501V217.673H279.993V328.818H272.054L240.299 276.501ZM329.062 217.673V328.818H289.367V217.673H329.062ZM338.436 217.673H378.131V249.429H338.436V217.673ZM421.795 217.673V328.818L382.1 328.739V217.673H421.795ZM425.764 217.673H465.459V249.429H425.764V217.673ZM514.527 217.673V328.818H474.833V217.673H514.527ZM518.497 217.673H593.917V249.429H518.497V217.673ZM518.497 257.368H593.917V289.124H518.497V257.368ZM518.497 297.062H593.917V328.818H518.497V297.062ZM642.985 217.673V328.818H603.291V217.673H642.985ZM682.68 249.429H646.955V217.673H690.619C701.574 217.673 710.916 221.563 718.643 229.344C726.423 237.071 730.313 246.412 730.313 257.368V289.044C730.313 300.053 726.423 309.447 718.643 317.227C710.916 324.954 701.574 328.818 690.619 328.818H646.955V297.062H682.68C684.85 297.062 686.702 296.295 688.237 294.76C689.825 293.172 690.619 291.294 690.619 289.124V257.368C690.619 255.198 689.825 253.346 688.237 251.811C686.702 250.223 684.85 249.429 682.68 249.429Z" fill="#174F94"/>
<path d="M538.834 103.664L553.61 141.963L504.229 140.408L519.198 103.664H538.834Z" fill="white"/>
<path d="M1219.67 94.5259L1072.31 94.5259" stroke="white" stroke-width="3.11063"/>
<path d="M802.463 274.943H655.097" stroke="white" stroke-width="3.11063"/>
<path d="M148.065 274.943H0.699284" stroke="white" stroke-width="3.11063"/>
<path d="M148.065 94.5259L0.699284 94.5259" stroke="white" stroke-width="3.11063"/>
</g>
</svg>
