<svg width="1132" height="290" viewBox="0 0 1132 290" fill="none" xmlns="http://www.w3.org/2000/svg">
<path d="M41.3312 248.978C41.3312 251.148 42.0987 253.027 43.6335 254.615C45.2213 256.15 47.1002 256.917 49.2701 256.917H65.148V288.673H41.3312C30.3755 288.673 21.0076 284.809 13.2275 277.082C5.50026 269.302 1.63672 259.907 1.63672 248.899V236.498H41.3312V248.978Z" stroke="white" stroke-width="1.32914"/>
<path d="M132.629 248.899C132.629 259.907 128.739 269.302 120.958 277.082C113.231 284.809 103.89 288.673 92.9341 288.673H69.1174V256.917H84.9952C87.1652 256.917 89.0176 256.15 90.5525 254.615C92.1402 253.027 92.9341 251.148 92.9341 248.978V236.498H132.629V248.899Z" stroke="white" stroke-width="1.32914"/>
<path d="M181.697 229.845V288.673H142.003V177.528H149.942L181.697 229.845Z" stroke="white" stroke-width="1.32914"/>
<path d="M261.086 288.673H221.392L153.911 177.528H193.606L261.086 288.673Z" stroke="white" stroke-width="1.32914"/>
<path d="M272.995 288.673H265.056L233.3 236.355V177.528H272.995V288.673Z" stroke="white" stroke-width="1.32914"/>
<path d="M322.064 288.673H282.369V177.528H322.064V288.673Z" stroke="white" stroke-width="1.32914"/>
<path d="M414.796 288.673L375.102 288.593V177.528H414.796V288.673Z" stroke="white" stroke-width="1.32914"/>
<path d="M507.529 288.673H467.834V177.528H507.529V288.673Z" stroke="white" stroke-width="1.32914"/>
<path d="M586.918 288.673H511.499V256.917H586.918V288.673Z" stroke="white" stroke-width="1.32914"/>
<path d="M635.987 288.673H596.292V177.528H635.987V288.673Z" stroke="white" stroke-width="1.32914"/>
<path d="M723.315 248.899C723.315 259.907 719.425 269.302 711.645 277.082C703.917 284.809 694.576 288.673 683.62 288.673H639.956V256.917H675.681C677.851 256.917 679.704 256.15 681.239 254.615C682.826 253.027 683.62 251.148 683.62 248.978V236.498H723.315V248.899Z" stroke="white" stroke-width="1.32914"/>
<path d="M586.918 248.978H511.499V217.223H586.918V248.978Z" stroke="white" stroke-width="1.32914"/>
<path d="M683.62 177.528C694.576 177.528 703.917 181.418 711.645 189.198C719.425 196.925 723.315 206.267 723.315 217.223V233.387H683.62V217.223C683.62 215.053 682.826 213.2 681.239 211.665C679.704 210.078 677.851 209.284 675.681 209.284H639.956V177.528H683.62Z" stroke="white" stroke-width="1.32914"/>
<path d="M41.3312 233.387H1.63672V177.528H41.3312V233.387Z" stroke="white" stroke-width="1.32914"/>
<path d="M132.629 233.387H92.9341V177.528H132.629V233.387Z" stroke="white" stroke-width="1.32914"/>
<path d="M371.132 209.284H331.438V177.528H371.132V209.284Z" stroke="white" stroke-width="1.32914"/>
<path d="M458.46 209.284H418.766V177.528H458.46V209.284Z" stroke="white" stroke-width="1.32914"/>
<path d="M586.918 209.284H511.499V177.528H586.918V209.284Z" stroke="white" stroke-width="1.32914"/>
<path d="M41.3312 72.7934C41.3312 74.9633 42.0987 76.8422 43.6335 78.43C45.2213 79.9648 47.1002 80.7323 49.2701 80.7323H65.148V112.488H41.3312C30.3755 112.488 21.0076 108.624 13.2275 100.897C5.50026 93.117 1.63672 83.7225 1.63672 72.7139V56.0812H41.3312V72.7934Z" stroke="white" stroke-width="1.32914"/>
<path d="M132.629 72.7139C132.629 83.7225 128.739 93.117 120.958 100.897C113.231 108.624 103.89 112.488 92.9341 112.488H69.1174V80.7323H84.9952C87.1652 80.7323 89.0176 79.9648 90.5525 78.43C92.1402 76.8422 92.9341 74.9633 92.9341 72.7934V56.0812H132.629V72.7139Z" stroke="white" stroke-width="1.32914"/>
<path d="M181.697 53.6606V112.488H142.003V1.3432H149.942L181.697 53.6606Z" stroke="white" stroke-width="1.32914"/>
<path d="M261.086 112.488H221.392L153.911 1.3432H193.606L261.086 112.488Z" stroke="white" stroke-width="1.32914"/>
<path d="M272.995 112.488H265.056L233.3 60.1705V1.3432H272.995V112.488Z" stroke="white" stroke-width="1.32914"/>
<path d="M322.064 82.1613V112.488H282.369V1.3432H290.308L322.064 82.1613Z" stroke="white" stroke-width="1.32914"/>
<path d="M377.636 112.488H337.941L294.277 1.3432H333.972L377.636 112.488Z" stroke="white" stroke-width="1.32914"/>
<path d="M389.544 112.488H381.605L365.728 72.0789L393.514 1.3432H433.208L389.544 112.488Z" stroke="white" stroke-width="1.32914"/>
<path d="M445.117 112.488H405.422V82.1613L437.178 1.3432H445.117V112.488Z" stroke="white" stroke-width="1.32914"/>
<path d="M490.216 112.488H450.521L494.185 1.3432H533.88L490.216 112.488Z" stroke="white" stroke-width="1.32914"/>
<path d="M589.452 112.488H549.758L545.588 101.931L546.611 101.963L531.835 63.6638H530.555L521.972 41.7523L537.849 1.3432H545.788L589.452 112.488Z" stroke="white" stroke-width="1.32914"/>
<path d="M634.551 53.6606V112.488H594.857V1.3432H602.796L634.551 53.6606Z" stroke="white" stroke-width="1.32914"/>
<path d="M713.94 112.488H674.246L606.765 1.3432H646.46L713.94 112.488Z" stroke="white" stroke-width="1.32914"/>
<path d="M725.849 112.488H717.91L686.154 60.1705V1.3432H725.849V112.488Z" stroke="white" stroke-width="1.32914"/>
<path d="M774.918 53.6606V112.488H735.223V1.3432H743.162L774.918 53.6606Z" stroke="white" stroke-width="1.32914"/>
<path d="M854.307 112.488H814.612L747.131 1.3432H786.826L854.307 112.488Z" stroke="white" stroke-width="1.32914"/>
<path d="M866.215 112.488H858.276L826.521 60.1705V1.3432H866.215V112.488Z" stroke="white" stroke-width="1.32914"/>
<path d="M915.284 112.488H875.589V1.3432H915.284V112.488Z" stroke="white" stroke-width="1.32914"/>
<path d="M994.673 112.488H919.253V80.7323H994.673V112.488Z" stroke="white" stroke-width="1.32914"/>
<path d="M1043.74 112.488H1004.05V1.3432H1043.74V112.488Z" stroke="white" stroke-width="1.32914"/>
<path d="M1131.07 72.7139C1131.07 83.7225 1127.18 93.117 1119.4 100.897C1111.67 108.624 1102.33 112.488 1091.38 112.488H1047.71V80.7323H1083.44C1085.61 80.7323 1087.46 79.9648 1088.99 78.43C1090.58 76.8422 1091.38 74.9633 1091.38 72.7934V56.0812H1131.07V72.7139Z" stroke="white" stroke-width="1.32914"/>
<path d="M994.673 72.7934H919.253V41.0377H994.673V72.7934Z" stroke="white" stroke-width="1.32914"/>
<path d="M1091.38 1.3432C1102.33 1.34321 1111.67 5.23329 1119.4 13.0134C1127.18 20.7406 1131.07 30.082 1131.07 41.0377V52.9707H1091.38V41.0377C1091.38 38.8678 1090.58 37.0154 1088.99 35.4806C1087.46 33.8928 1085.61 33.0988 1083.44 33.0988H1047.71V1.3432H1091.38Z" stroke="white" stroke-width="1.32914"/>
<path d="M41.3312 52.9707H1.63672V1.3432H41.3312V52.9707Z" stroke="white" stroke-width="1.32914"/>
<path d="M132.629 52.9707H92.9341V1.3432H132.629V52.9707Z" stroke="white" stroke-width="1.32914"/>
<path d="M994.673 33.0988H919.253V1.3432H994.673V33.0988Z" stroke="white" stroke-width="1.32914"/>
</svg>
